<svg xmlns="http://www.w3.org/2000/svg" width="18.573" height="15.49" viewBox="0 0 18.573 15.49">
  <g id="Layer_2" data-name="Layer 2" transform="translate(0.6 0.6)" opacity="0.8">
    <g id="Layer_1" data-name="Layer 1" transform="translate(0 0)">
      <rect id="Rectangle_195" data-name="Rectangle 195" width="17.373" height="7.904" rx="2.36" fill="rgba(0,0,0,0)" stroke="#2b303a" stroke-linecap="round" stroke-linejoin="round" stroke-width="1.2"/>
      <line id="Line_35" data-name="Line 35" x2="8.346" transform="translate(1.585 3.952)" fill="none" stroke="#2b303a" stroke-linecap="round" stroke-linejoin="round" stroke-width="1.2"/>
      <line id="Line_36" data-name="Line 36" x2="3.692" transform="translate(11.965 3.952)" fill="none" stroke="#2b303a" stroke-linecap="round" stroke-linejoin="round" stroke-width="1.2"/>
      <line id="Line_37" data-name="Line 37" x2="3.692" transform="translate(1.585 5.726)" fill="none" stroke="#2b303a" stroke-linecap="round" stroke-linejoin="round" stroke-width="1.2"/>
      <line id="Line_38" data-name="Line 38" x2="8.346" transform="translate(7.311 5.726)" fill="none" stroke="#2b303a" stroke-linecap="round" stroke-linejoin="round" stroke-width="1.2"/>
      <line id="Line_39" data-name="Line 39" y2="3.996" transform="translate(12.899 10.076)" fill="none" stroke="#2b303a" stroke-linecap="round" stroke-linejoin="round" stroke-width="1.2"/>
      <line id="Line_40" data-name="Line 40" x2="3.46" y2="1.998" transform="translate(11.169 11.075)" fill="none" stroke="#2b303a" stroke-linecap="round" stroke-linejoin="round" stroke-width="1.2"/>
      <line id="Line_41" data-name="Line 41" x1="3.46" y2="1.998" transform="translate(11.169 11.075)" fill="none" stroke="#2b303a" stroke-linecap="round" stroke-linejoin="round" stroke-width="1.2"/>
      <path id="Path_99" data-name="Path 99" d="M5.521,15c.159.347.434.514.434,1.086,0,.8-.536.8-.536,1.607A1.65,1.65,0,0,0,5.84,18.7" transform="translate(-2.011 -4.656)" fill="rgba(0,0,0,0)" stroke="#2b303a" stroke-linecap="round" stroke-linejoin="round" stroke-width="1.2"/>
      <path id="Path_100" data-name="Path 100" d="M10.961,15c.152.347.434.514.434,1.086,0,.8-.536.8-.536,1.607a1.607,1.607,0,0,0,.384.984" transform="translate(-3.513 -4.656)" fill="rgba(0,0,0,0)" stroke="#2b303a" stroke-linecap="round" stroke-linejoin="round" stroke-width="1.2"/>
      <path id="Path_101" data-name="Path 101" d="M8.244,14.25c.159.347.434.514.434,1.093,0,.8-.528.8-.528,1.6a1.607,1.607,0,0,0,.384.984" transform="translate(-2.764 -4.449)" fill="rgba(0,0,0,0)" stroke="#2b303a" stroke-linecap="round" stroke-linejoin="round" stroke-width="1.2"/>
    </g>
  </g>
</svg>
