<svg xmlns="http://www.w3.org/2000/svg" width="18.576" height="16.493" viewBox="0 0 18.576 16.493">
  <g id="Layer_2" data-name="Layer 2" transform="translate(0.6 0.793)" opacity="0.8">
    <g id="Layer_1" data-name="Layer 1" transform="translate(0 0)">
      <path id="Path_107" data-name="Path 107" d="M7.352,16.354A6.761,6.761,0,0,1,2.56,9.883V9H16.089v.869a6.761,6.761,0,0,1-5.009,6.515" transform="translate(-1.221 -2.999)" fill="rgba(0,0,0,0)" stroke="#2b303a" stroke-linecap="round" stroke-linejoin="round" stroke-width="1.2"/>
      <path id="Path_108" data-name="Path 108" d="M12.827,20.927H4.793C2.3,20.927.71,20.2.71,19.24H16.917C16.917,20.174,15.4,20.927,12.827,20.927Z" transform="translate(-0.71 -5.827)" fill="rgba(0,0,0,0)" stroke="#2b303a" stroke-linecap="round" stroke-linejoin="round" stroke-width="1.2"/>
      <path id="Path_109" data-name="Path 109" d="M20.666,11.617s2.324-1.39,2.526.442S20.21,14.65,19.24,14.723" transform="translate(-5.827 -3.583)" fill="rgba(0,0,0,0)" stroke="#2b303a" stroke-linecap="round" stroke-linejoin="round" stroke-width="1.2"/>
      <path id="Path_110" data-name="Path 110" d="M8.719,1.54c.159.369.456.543.456,1.158,0,.854-.565.854-.565,1.708a1.716,1.716,0,0,0,.405,1.086" transform="translate(-2.892 -0.939)" fill="rgba(0,0,0,0)" stroke="#2b303a" stroke-linecap="round" stroke-linejoin="round" stroke-width="1.2"/>
      <path id="Path_111" data-name="Path 111" d="M14.519,1.54c.166.369.463.543.463,1.158,0,.854-.572.854-.572,1.708a1.716,1.716,0,0,0,.427,1.086" transform="translate(-4.493 -0.939)" fill="rgba(0,0,0,0)" stroke="#2b303a" stroke-linecap="round" stroke-linejoin="round" stroke-width="1.2"/>
      <path id="Path_112" data-name="Path 112" d="M11.619.71c.166.369.463.543.463,1.158,0,.854-.572.854-.572,1.708a1.694,1.694,0,0,0,.413,1.05" transform="translate(-3.692 -0.71)" fill="rgba(0,0,0,0)" stroke="#2b303a" stroke-linecap="round" stroke-linejoin="round" stroke-width="1.2"/>
    </g>
  </g>
</svg>
