<svg xmlns="http://www.w3.org/2000/svg" width="17.849" height="18.572" viewBox="0 0 17.849 18.572">
  <g id="Layer_2" data-name="Layer 2" transform="translate(0.6 0.6)" opacity="0.8">
    <g id="Layer_1" data-name="Layer 1" transform="translate(0 0)">
      <path id="Path_113" data-name="Path 113" d="M15.36,7.39v5.791A3.214,3.214,0,0,0,16,15.171a2.758,2.758,0,0,0,2.28,1.057,2.99,2.99,0,0,0,2.374-1.064,3.257,3.257,0,0,0,.724-2.121V7.39Z" transform="translate(-4.755 -2.555)" fill="rgba(0,0,0,0)" stroke="#2b303a" stroke-linecap="round" stroke-linejoin="round" stroke-width="1.2"/>
      <line id="Line_42" data-name="Line 42" y2="3.134" transform="translate(13.63 13.92)" fill="#fff" stroke="#2b303a" stroke-linecap="round" stroke-linejoin="round" stroke-width="1.2"/>
      <line id="Line_43" data-name="Line 43" x1="4.806" transform="translate(11.227 17.054)" fill="#fff" stroke="#2b303a" stroke-linecap="round" stroke-linejoin="round" stroke-width="1.2"/>
      <line id="Line_44" data-name="Line 44" x2="6.044" transform="translate(10.605 7.434)" fill="none" stroke="#2b303a" stroke-linecap="round" stroke-linejoin="round" stroke-width="1.2"/>
      <path id="Path_114" data-name="Path 114" d="M2.664,2.606V6.19L1.123,7.731a1.4,1.4,0,0,0-.413,1v8.382a.97.97,0,0,0,.97.97H6.906a.97.97,0,0,0,.97-.97V8.6a1.448,1.448,0,0,0-.521-1.093L5.6,6.059V2.606S6.964.71,4.293.71C1.3.71,2.664,2.606,2.664,2.606Z" transform="translate(-0.71 -0.71)" fill="rgba(0,0,0,0)" stroke="#2b303a" stroke-linecap="round" stroke-linejoin="round" stroke-width="1.2"/>
      <path id="Path_115" data-name="Path 115" d="M0,0H3.569A1.535,1.535,0,0,1,5.1,1.571V2.917A1.535,1.535,0,0,1,3.569,4.452H0Z" transform="translate(7.166 13.92) rotate(180)" fill="rgba(0,0,0,0)" stroke="#2b303a" stroke-linecap="round" stroke-linejoin="round" stroke-width="1.2"/>
      <path id="Path_116" data-name="Path 116" d="M21.038,13.83s.2,2.338-1.5,2.447" transform="translate(-5.91 -4.333)" fill="rgba(0,0,0,0)" stroke="#2b303a" stroke-linecap="round" stroke-linejoin="round" stroke-width="1.2"/>
    </g>
  </g>
</svg>
