<svg xmlns="http://www.w3.org/2000/svg" width="19.47" height="19.289" viewBox="0 0 19.47 19.289">
  <g id="Layer_2" data-name="Layer 2" transform="translate(0.6 0.6)" opacity="0.8">
    <g id="Layer_1" data-name="Layer 1" transform="translate(0 0)">
      <path id="Path_119" data-name="Path 119" d="M.71,19.09c1.144,0,1.144,1.448,2.28,1.448S4.134,19.09,5.278,19.09s1.136,1.448,2.28,1.448,1.136-1.448,2.28-1.448,1.144,1.448,2.287,1.448,1.136-1.448,2.28-1.448,1.144,1.448,2.287,1.448,1.144-1.448,2.287-1.448" transform="translate(-0.71 -5.793)" fill="rgba(0,0,0,0)" stroke="#2b303a" stroke-linecap="round" stroke-linejoin="round" stroke-width="1.2"/>
      <path id="Path_120" data-name="Path 120" d="M.71,23.71c1.144,0,1.144,1.448,2.28,1.448S4.134,23.71,5.278,23.71s1.136,1.448,2.28,1.448,1.136-1.448,2.28-1.448,1.144,1.448,2.287,1.448,1.136-1.448,2.28-1.448,1.144,1.448,2.287,1.448,1.144-1.448,2.287-1.448" transform="translate(-0.71 -7.069)" fill="rgba(0,0,0,0)" stroke="#2b303a" stroke-linecap="round" stroke-linejoin="round" stroke-width="1.2"/>
      <path id="Path_121" data-name="Path 121" d="M21.51,2.168a1.448,1.448,0,0,1,2.9,0" transform="translate(-6.454 -0.72)" fill="rgba(0,0,0,0)" stroke="#2b303a" stroke-linecap="round" stroke-linejoin="round" stroke-width="1.2"/>
      <line id="Line_45" data-name="Line 45" y1="10.532" transform="translate(15.056 1.448)" fill="none" stroke="#2b303a" stroke-linecap="round" stroke-linejoin="round" stroke-width="1.2"/>
      <path id="Path_122" data-name="Path 122" d="M10.77,2.168a1.448,1.448,0,0,1,2.9,0" transform="translate(-3.488 -0.72)" fill="rgba(0,0,0,0)" stroke="#2b303a" stroke-linecap="round" stroke-linejoin="round" stroke-width="1.2"/>
      <line id="Line_46" data-name="Line 46" y1="10.532" transform="translate(7.282 1.448)" fill="none" stroke="#2b303a" stroke-linecap="round" stroke-linejoin="round" stroke-width="1.2"/>
      <line id="Line_47" data-name="Line 47" x2="6.862" transform="translate(7.608 6.167)" fill="none" stroke="#2b303a" stroke-linecap="round" stroke-linejoin="round" stroke-width="1.2"/>
      <line id="Line_48" data-name="Line 48" x2="6.862" transform="translate(7.608 9.772)" fill="none" stroke="#2b303a" stroke-linecap="round" stroke-linejoin="round" stroke-width="1.2"/>
    </g>
  </g>
</svg>
