<svg xmlns="http://www.w3.org/2000/svg" width="439.822" height="442.059" viewBox="0 0 439.822 442.059">
  <path id="Path_130" data-name="Path 130" d="M395.862,834.122q-11.073-16.956-22.127-33.924a18.4,18.4,0,0,0-1.979-2.785,65.938,65.938,0,0,1-15.5-26.824c-1.582-5.126-3.782-10.062-5.723-15.075-1.78-4.595-.215-6.626,4.593-5.922.323.048.643.108.966.151,16.205,2.164,32.307,1.418,48.418-1.212a131.744,131.744,0,0,1,19.165-1.513c9.116-.138,18.243.409,27.362.348a46.377,46.377,0,0,0,9.612-1.547c5.809-1.293,3.763-7.189-.525-8.7-4.055-1.426-8.879-1.1-13.1-1.069a120.352,120.352,0,0,0-29.135,4.118c-19.684,5.018-41.995,1.838-61.631-2.094-3.2-.64-6.864-2.155-8.931-4.491a48.569,48.569,0,0,1-12.068-30.511c-.218-4.713-2.221-20.134,6.667-16.887,3.743,1.368,7.376,3.267,11.235,4.033,8.377,1.663,16.871,2.734,25.311,4.081,5.765.92,11.689,1.327,17.245,2.967,12.254,3.617,24.545,4.916,37.159,2.711.114,0,.229,0,.343,0,2.889-3.8,2.651-5.641-1.18-8.127-8.206-5.327-17.189-8.211-26.942-6.676-17.556,2.764-34.965-.741-52.449-.728-13.922.011-14.932-16.772-16.163-27.272-.67-5.716,2.444-7.255,7.418-5.235,5.379,2.185,10.055,3.688,16.027,3.456,7.043-.274,14.167-.736,21.215-.6,4.18.082,9.3,1.319,13.21-.682,9.533-4.884-6.831-10.4-10.148-12.085-9.722-4.933-19.641-9.534-29.055-15-7.158-4.158-8.621-8.715-5.73-16.4,3.35-8.9,7.416-17.54,11.319-26.227,2.368-5.27,8.9-5.031,13.782-5.808a112.318,112.318,0,0,1,13.834-1.621c9.586-.32,18.438,2.6,23.695,11.083,5.572,8.988,10.508,18.377,15.568,27.674,3.723,6.839,6.191,14.446,13.023,20.138l5.89-3.326v-.009c-.309-4.254-.319-8.556-.985-12.754-2.275-14.331-5.935-28.7-6.437-43.222a30.484,30.484,0,0,0-3.582-13.924c-1.917-3.738-2.243-7.463,2.7-8.645,4.3-1.028,9.013,1.055,13.033,2.313,6.653,2.081,13.423,3.772,19.959,6.224,12.838,4.817,17.544,17.536,18.332,30.352.79,12.862.4,25.816,0,38.685-.4,12.885.624,25.631,1.59,38.467a71.581,71.581,0,0,0,1.377,10.63c.656,2.857,2.036,5.562,5.543,6.051.006.1.013.2.02.3l.065.116.5.016.211-.005c.152.019.3.039.455.06q2.009-1.91,4.015-3.82l.572-.025-.022-.678-.536.019a21.585,21.585,0,0,0,.408-3.319c-.346-12.528-.812-25.053-1.106-37.581a204.592,204.592,0,0,1,4.536-49.282,46.945,46.945,0,0,0,.656-11.765c-.06-1.95-.231-4.013,1.118-5.618,2.581-3.073,7.817-2,11.159-1.191,12.125,2.92,21.634,10.755,31.783,17.544,19.029,12.729,53.417,20.687,54.441,48.885a102.575,102.575,0,0,1-.657,17.28c-2.612,19.48-11.582,36.485-21.333,53.151-4.359,7.449-8.613,14.961-12.846,22.482a29.554,29.554,0,0,0-1.566,4.095l2.134,1.346-.1.2.114-.193c1.722-2.465,3.582-4.847,5.142-7.411q8.444-13.878,16.714-27.861c9.167-15.484,18.193-31.018,18.115-49.894a4.955,4.955,0,0,1,2-3.771c4.883-2.671,15.9,13.243,18,15.942a94.22,94.22,0,0,1,16.73,32.8c1.483,5.418,1.956,11.245-.267,16.531-1.7,4.043-7.5,7.576-6.288,12.255,1.054,4.061,5.694,7.137,7.964,10.546a63.636,63.636,0,0,1,8.327,19.327c2.4,9.233,4.924,18.316,3.452,27.932A48.932,48.932,0,0,1,651.333,809c-8.731,10.492-25.517,21.875-39.615,15.641l-1.038,1.3a23.448,23.448,0,0,0,2.587,3.78c8.2,7.8,16.722,15.284,24.69,23.315,14.4,14.515,28.5,29.329,42.686,44.057,1.689,1.754,5.112,5.185,5.112,5.185h0c-.011.015,6.465,3.368,6.635,6.749.107,2.131-2.441,6.2-4.2,5.153-11.594-6.928-34.027-32.8-54.793-54.509,0,0-5.6-5-10.456-10.368a89.588,89.588,0,0,0-8.3-7.157l-.011,0a49.357,49.357,0,0,0-1.178,6.455c-.759,14.619-7.333,26.632-17.265,36.763-8.262,8.427-19.23,15.839-29.814,21.027a54.093,54.093,0,0,1-28.712,5.411,63.866,63.866,0,0,1-16.287-3.64c-2.849-1.063-7.963-2.6-8.16-6.345-.275-5.229,7.239-9.064,9.8-12.936,8.57-12.977,13.911-27.365,17.632-42.4-.029-.145-.054-.29-.075-.437l-.1-.069c-.121-.013-.242-.028-.364-.043-2.573-1.726-4.177-1.172-6.842,2.572q-4.248,5.967-8.345,12.043c-6.3,9.326-12.937,18.367-21.093,26.2-6.039,5.8-12.686,7.959-20.666,4-11.47-5.692-23.182-10.454-34.218-17.063a153.38,153.38,0,0,1-15.375-10.43c-4.8-3.735-8.884-8.495-13.991-11.817-5.455-3.548-11.262-6.556-16.931-9.774l-4.2-3.893C397.6,836.55,396.677,835.37,395.862,834.122ZM602.52,767.089h.012c7.115-.453,12.135-4.8,16.737-9.506a42.964,42.964,0,0,0,10.563-18.721c.822-2.933.652-9.572-4.343-7.332a45.713,45.713,0,0,0-11.245,6.591,81.788,81.788,0,0,0-11.514,12.486c-1.835,2.416-2.706,5.713-3.482,8.747-1.018,3.986-.139,5.556,3.284,7.735Zm-62.5-51.756c2.144.229,3.613-2.209,3.888-3.935,3.165-19.851,6.326-39.7,9.367-59.572.194-1.27-.577-2.688-.908-4.039l.013-.023.683-.686v-.018l-.7.7.007.025a12.123,12.123,0,0,0-1.573,2.932q-4.09,18.393-8.116,36.8C542,690.608,534.366,714.729,540.021,715.333Zm-48.678,34.614c3.007-1.186,3.55-3.07,2.23-6.029l-.006-.008c-3.7-.794-7.406-.96-10.491,1.537a5.267,5.267,0,0,0-1.7,4.018C481.76,753.088,489.7,750.594,491.343,749.947Zm2.575,32.18c4.054-8.827-11.826-7.59-16.307-7.347-7.949.433-15.81,2.728-22.02,7.873-7.275,6.028-16.54,7.849-25.3,10.638-2.591.825-5.2,1.6-7.8,2.4l.072,1.249a10.9,10.9,0,0,0,3.1.4c4.979-.808,9.978-1.575,14.884-2.723a30.71,30.71,0,0,1,14.718,0,37.468,37.468,0,0,0,21.536-.963C482.16,791.764,491.41,787.586,493.918,782.127Zm-38.4,64.915c14.678-2.3,28.808-6.16,40.791-15.523,5.436-4.248,10.755-8.648,16.072-13.046a30.006,30.006,0,0,0,2.913-3.175c-.239-.989-.429-1.77-.618-2.551v-.005c-2.084.563-4.365.758-6.218,1.751-7.607,4.076-15.023,8.505-22.621,12.6-9.676,5.212-19.481,10.186-29.18,15.356a44.781,44.781,0,0,0-4.912,3.5l-.017-.006v.018l.017-.012C453.005,846.341,454.344,847.225,455.516,847.042Z" transform="matrix(0.966, -0.259, 0.259, 0.966, -466.251, -355.091)" fill="none" stroke="#ac8053" stroke-miterlimit="10" stroke-width="1" opacity="0.7"/>
</svg>
